<svg xmlns="http://www.w3.org/2000/svg" width="6236.221" height="2352.76" viewBox="0 0 6236.221 2352.76"><path fill="none" d="M0 0h6236.22v2352.76H0z"/><path d="M3421.01 1936.34c-3.42 14.225-7.197 25.746-11.164 34.382-4.055 8.74-9.363 15.495-16.213 20.173-6.83 4.86-15.488 8.1-25.824 9.806-10.26 1.724-23.5 2.63-39.265 2.617l-182.482.072 12.066-57.155 174.556-.182c8.113.023 14.506-1.896 19.28-5.752 4.85-3.87 7.276-8.112 7.276-12.688 0-9-6.646-13.513-19.612-13.513l-99.853.085c-20.695 0-36.545-4.22-47.34-12.8-10.803-8.47-16.2-19.888-16.2-34.117 0-1.803 0-3.51.27-5.122 0-1.533.363-3.234 1.09-5.05l4.488-23.76c3.51-14.224 7.31-25.745 11.52-34.564 4.157-8.832 9.532-15.668 16.49-20.715 6.74-4.955 15.205-8.188 25.564-9.722 10.086-1.62 23.134-2.34 38.882-2.34l182.128-.173-12.146 57.257h-169.996c-8.527 0-15.547 2.15-20.79 6.29-5.215 4.22-7.917 8.73-7.91 13.685 0 9.37 7.104 13.962 21.335 13.874h105.51c35.022 0 52.482 16.39 52.477 49.25 0 3.066-.18 6.045-.53 9.095a55.9 55.9 0 0 1-1.357 9.007l-2.253 12.06zM3705.592 1935.645c-2.703 14.753-6.213 26.295-10.543 34.926-4.33 8.63-10.17 15.486-17.114 20.253-7.19 4.765-15.922 8.02-26.37 9.443-10.35 1.612-23.04 2.346-38.265 2.346l-82.187-.02 11.984-56.968 56.255.016c8.646-.016 15.573-.46 20.614-1.192 5.043-.726 9.184-2.42 12.06-4.853 2.964-2.606 5.136-5.84 6.495-9.995 1.423-4.23 2.71-9.807 4.052-16.933l12.875-56.8c.71-3.79.893-7.103.71-10.066-.073-2.89.278-5.41 1.185-7.568.007-6.205-2.056-10.286-6.22-12.24-4.32-1.99-12.6-3.066-25.386-3.066l-80.836.065-54.68 258.752-67.336-.01 66.742-315.91 173.752.015c12.334 0 22.86.537 31.598 1.54 8.645 1.178 15.566 2.972 20.88 5.856 5.23 2.71 9.18 6.58 11.433 11.346 2.353 4.852 3.413 10.998 3.413 18.35 0 3.98-.348 8.478-.902 13.43-.623 4.947-1.624 10.533-2.876 16.83l-21.332 102.455zM4004.387 1912.89l-156.557-.012 12.074-56.994 91.46-.095c2.16-8.9 3.154-14.465 3.154-17.007 0-10.605-8.724-16.01-26.376-16.01l-53.48-.016c-7.73.183-13.945.452-19.002 1.25-4.94.713-8.992 2.253-12.06 4.598-3.05 2.245-5.57 5.69-7.466 9.988-1.803 4.33-3.5 10.17-5.057 17.566l-12.043 56.44c-1.265 3.967-1.896 8.18-1.896 12.51 0 4.344.253 7.742.624 10.373.624 2.672 1.88 4.662 4.03 6.015 2.173 1.445 5.405 2.44 9.466 3.152 4.234.45 9.987.9 17.47.916l137.917-.204-11.978 57.182-163.495-.014c-13.045 0-23.934-.536-32.76-1.793-8.818-1.185-15.844-3.24-21.154-6.03-5.316-2.716-8.993-6.485-11.17-11.085-2.167-4.686-3.14-10.533-3.14-17.63-.016-8.76 1.44-18.83 4.495-30.35l21.438-102.54c2.435-12.152 5.944-22.402 10.36-30.88 4.41-8.463 10.445-15.48 17.826-20.884 7.467-5.48 16.562-9.443 27.006-11.88 10.527-2.52 22.855-3.782 37.093-3.782l96.685.007c12.336.007 22.87.457 31.512 1.635 8.717 1.074 15.662 2.956 20.893 5.753 5.303 2.717 9.088 6.56 11.333 11.35 2.44 4.852 3.5 10.894 3.5 18.36 0 3.967-.065 8.448-.624 13.512-.436 4.934-1.533 10.52-2.964 16.744l-17.113 79.855zM4296.426 1912.717l-156.455.088 12.067-57.082 91.47-.174c2.164-8.82 3.233-14.405 3.24-16.927-.007-10.626-8.82-16.023-26.47-16.023l-53.48.086c-7.65 0-14.034.452-18.996 1.17-5.047.72-9 2.346-12.062 4.687-3.06 2.33-5.572 5.58-7.463 9.9-1.816 4.33-3.523 10.076-5.055 17.55l-12.06 56.537c-1.257 3.967-1.792 8.12-1.792 12.428 0 4.31.166 7.83.61 10.353.536 2.688 1.806 4.68 3.964 6.11 2.15 1.446 5.318 2.435 9.453 2.884 4.234.727 10.082.914 17.454.914l138.018.016-12.072 57.053-163.574.202c-12.96 0-23.855-.726-32.674-1.815-8.826-1.353-15.836-3.263-21.168-6.116-5.303-2.806-8.986-6.424-11.072-10.99-2.14-4.702-3.217-10.63-3.217-17.647 0-8.82 1.432-18.902 4.49-30.35l21.34-102.534c2.528-12.153 5.944-22.417 10.448-30.976 4.512-8.548 10.438-15.486 17.832-20.89 7.483-5.478 16.46-9.342 26.994-11.856 10.54-2.535 22.883-3.793 37.193-3.8l96.6.017c12.34-.016 22.867.535 31.597 1.626 8.646 1.068 15.575 2.972 20.807 5.754 5.317 2.79 9.08 6.668 11.53 11.347 2.23 4.854 3.403 10.978 3.403 18.38-.012 4.03-.174 8.454-.71 13.497-.464 4.854-1.446 10.533-2.97 16.742l-17.217 79.837zM4564.51 2002.67l-173.285-.007c-12.7.188-23.238-.538-31.79-1.526-8.44-.987-15.386-2.98-20.868-5.76-5.507-2.702-9.264-6.574-11.63-11.353-2.253-4.767-3.5-10.898-3.51-18.27.01-4.315.276-9 .733-13.788.365-4.758 1.432-10.178 3.06-15.932l22.155-103.165c3.14-14.225 6.74-25.736 10.88-34.388 4.26-8.646 9.647-15.48 16.49-20.253 6.853-4.77 15.394-8.022 25.745-9.81 10.445-1.713 23.332-2.52 38.805-2.54l82.725.02-12.043 57.096-57.184.065c-7.736.01-14.123.27-19.077.903-4.968.638-8.825 1.99-11.78 4.14-2.906 2.165-5.436 5.5-7.22 9.822-1.812 4.328-3.62 10.343-5.146 18.088l-12.074 56.616c-1.8 9.298-2.68 15.32-2.68 18.1-.014 6.306 2.057 10.374 6.197 12.147 4.242 1.91 12.8 2.804 25.918 2.804l80.677.015 54.764-258.834h67.34l-67.2 315.81zM5106.416 1765.038L4970.46 2002.53h-97.595l-12.603-137.928-79.31 138.018-89.218-.03-35.812-237.306 69.133.016 23.76 188.962 110.466-189.05h50.247l20.514 188.955 107.148-189.04zM5366.486 1912.182l-156.376.158 11.978-57.17 91.56-.087c2.077-8.816 3.24-14.483 3.24-16.923 0-10.63-8.835-16.026-26.56-16.026l-53.393-.014c-7.73 0-14.033.464-19.09 1.27-4.852.72-8.89 2.333-12.043 4.57-3.066 2.353-5.5 5.695-7.395 9.924-1.875 4.328-3.5 10.255-5.033 17.652l-12.066 56.44c-1.258 3.95-1.89 8.092-1.89 12.524 0 4.3.175 7.647.714 10.33.45 2.613 1.697 4.69 3.957 5.956 2.063 1.438 5.317 2.52 9.523 3.152 4.17.623 10.01.9 17.396.9l137.917-.094-11.965 57.073-163.5.176c-13.047 0-23.957-.714-32.87-1.976-8.724-1.076-15.835-3.24-21.138-5.943-5.225-2.82-8.826-6.494-11.095-11.156-2.148-4.686-3.227-10.447-3.227-17.66.008-8.637 1.445-18.632 4.592-30.06l21.342-102.81c2.434-12.057 5.957-22.337 10.454-30.8 4.506-8.542 10.44-15.48 17.906-20.98 7.388-5.302 16.302-9.34 26.92-11.868 10.46-2.427 22.87-3.704 37.106-3.704l96.585.013c12.436 0 22.955.554 31.592 1.628 8.657 1.097 15.683 2.876 20.993 5.76 5.223 2.695 9.094 6.59 11.33 11.354 2.26 4.87 3.51 10.977 3.51 18.364a124.04 124.04 0 0 1-.705 13.416 115.312 115.312 0 0 1-3.064 16.73l-17.208 79.88zM5637.387 2002.125l-174.127.072c-12.7-.007-23.312-.45-32.05-1.438-8.733-1.25-15.662-3.147-20.966-5.928-5.236-2.73-9.02-6.494-11.346-11.36-2.354-4.87-3.43-10.983-3.43-18.378 0-4.49.176-8.993.8-13.846.726-4.68 1.54-10.09 2.81-16.033l2.87-12.967c2.995-14.404 6.675-25.933 10.897-34.824 4.053-8.825 9.64-15.59 16.395-20.44 6.836-4.868 15.393-8.02 25.838-9.632 10.36-1.526 23.39-2.253 39.162-2.253l78.576-.096-12.16 57.09-72.816.088c-6.48 0-11.78 2.164-15.754 6.48-4.062 4.307-6.125 9.005-6.125 13.953 0 8.376 4.954 12.603 14.95 12.517l101.275.007 19.004-89.676c1.808-9.27 2.702-15.29 2.702-18.088 0-6.22-2.062-10.273-6.298-12.146-4.142-1.81-12.604-2.7-25.302-2.7l-138.374.07 12.067-57.184 163.498-.06c12.67 0 23.305.525 32.03 1.534 8.665 1.076 15.68 3.05 20.897 5.84 5.23 2.806 9.096 6.59 11.354 11.44 2.33 4.78 3.5 10.898 3.5 18.28 0 7.466-1.257 17.382-3.696 29.81l-36.18 169.865zM5897.38 1822.366l-78.948-.014c-8.012 0-14.5.35-19.73 1.183-5.112.792-9.088 2.42-12.05 4.57-2.886 2.346-5.21 5.767-6.938 10.09-1.708 4.31-3.14 10.09-4.48 17.18l-31.447 146.75h-67.34l50.516-236.87 67.33.022-6.02 29.688c12.42-19.874 29.178-29.688 50.15-29.682l71.014-.086-12.058 57.17zM4771.87 706.166c7.375-33.883-19.93-65.29-54.485-62.795l-254.666.47c.396-82.833 58.976-154.393 140.11-171.158l.29.102c94.06-16.367 191.495-17.972 286.25-4.584 48.474 4.482 91.048 33.924 112.128 77.813 14.354 32.878 18.22 69.293 10.998 104.237l.116-.657-27.558 206.08-234.838-1.137 21.655-148.37m315.752-63.475v-.18.18zM5870.9 465.904l-832.703 1.923c39.844 49.025 57.555 112.135 49.425 174.683l648.688-.593c37.09-2.194 65.826 31.79 57.37 67.833v-.11l-25.16 160.974.073.09c-4.36 39.852-37.508 70.47-77.553 72.12-6.117.58-12.24.5-18.41-.306l.496.08 29.928-209.232-231.422-.055-132.76 832.683 240.86-1.074 69.26-424.12 22.606-.303c30.526 0 53.537 28.344 46.826 58.228l-50.762 366.025 230.404-.48 57.197-389.786c7.46-49.14-15.238-98.058-57.778-123.998l-.845.254a196.276 196.276 0 0 0 97.996-126.48l.18-.78 44.057-277.607c13.05-99.525-66.172-179.97-167.973-179.97m-631.486 605.06l107.32.11 31.287-190.513-109.61 1.005 24.266-148.254-237.828-.144-127.45 833.56 372.91-.675 25.79-166.124-132.668-.282 45.984-328.68zm-1412.693 78.482c4.04-38.827-16.36-75.984-51.24-93.6l-.74.256c58.228-33.124 97.063-92.425 104.37-159.05v-.782l36.182-259.802v.58c5.878-92.163-69.14-169.424-161.656-166.353l-369.54.77-26.16 174.58 267.22-.48c27.662-.96 49.287 23.56 44.71 50.763h.082l-25.78 174.288v.182c-2.377 44.555-38.85 79.88-83.574 81.24l.398-.2-24.423-.19 34.767-218.57-227.587-.448-120.09 835 224.314.56 62.21-429.18h28.288c33.793 6.95 57.168 37.86 54.49 72.38v.036-.036l-45.49 357.78 153.514-.233 125.64-419.635.095.145zm878.214-11.05l-32.95 203.128-4.228 22.11v.103a93.866 93.866 0 0 1-9.873 33.787c-12.72 34.498-61.955 31.796-71.14-3.334l.06-.103c-2.847-9.387-3.414-18.96-1.67-28.535l-.11.183 96.63-632.66-231.38-.075-102.098 555.54 11.02-817.845-283.758 1.34-47.485 172.654 160.862-.367-33.71 535.53-79.667 1.04 79.455-330.003-.436-117.578-156.58-.49-239.533 836.113 219.79-.748 59.492-202.54 99.084.48-6.908 201.826 209.947.646 8.265-56.595-.203-.318c41.174 38.906 92.008 66.073 147.078 79.02l-.174-.118c81.568 17.824 166.254 15.727 246.8-6.275l-.38.138c42.584-15.022 80.518-40.948 110.117-75.053a265.866 265.866 0 0 0 47.502-109.56l.29-1.082 42.98-258.734-237.09-1.628zM918.444 732.25L790.31 1568.76l229.748-.574 124.472-835.558-226.086-.378zm283.575-266.146l-234.155.585-28.257 176.398 230.317-.396 32.094-176.588zM875.727 630.412l-37.65 266.256-.18.29c-13.583 51.903-54.782 92.39-107.086 105.08l-.156.072.156-.072c45.41 23.15 73.172 70.85 70.89 121.88l-31.5 254.276v.253C759.945 1497.34 659.09 1570.48 534.8 1570.373l-331.343.108 120.16-836.246 227.182-.17-27.013 171.044 22.685-.283c24.03 2.404 45.505-15.084 48.185-38.987v-.2l31.7-168.73v.25c4.202-30.328-21.538-56.225-52.01-52.157l-239.893-.398 25.166-176.776 352.177-.695h.27c89.827 1.07 162.433 73.49 163.66 163.282m-354.054 463.143l-26.51-.37-49.513 313.992h23.53c29.11 2.05 55.186-17.6 61.508-45.952v-.203l30.162-206.833-.1.035c7.643-27.698-10.623-56.058-39.077-60.67m1105.73-638.58l.963.29c-71.072-13.695-144.694-14.45-216.06-2.01l-.173-.11-4.604.603c-109.08 21.934-185.69 85.532-194.21 187.898l230.718-.712h.086c48.082.117 75.858 37.36 68.323 83.17v-.22l-82.13 623.895c.29 24.733-19.615 44.98-44.417 45.16-24.53 0-44.46-20.1-44.35-44.623l80.725-616.96-224.855.21-104.095 684.182c-10.257 65.856 26.898 131.088 91.246 151.124l-.74-.146c100.66 24.662 203.88 28.438 305.873 11.614l2.503-.464c87.897-15.815 154.167-88.776 161.25-177.95v-.087l113.176-770.946-.147.58c19.506-96.653-53.845-157.438-139.082-174.498m1584.118 520.32c-.088 123.416-32.275 245.81-93.278 353.835l-.102 279.09h-8.694l-1250.08-.37v-278.88c-60.923-108.316-93.08-230.71-93.08-354.148.09-121.696 31.505-242.68 90.97-349.77V389.783l207.73.087c123.91-90.42 270.456-138.076 423.977-138.076 153.776.065 300.3 47.856 424.22 138.255l208.015.086-.086 235.92c59.09 107.02 90.41 227.783 90.41 349.24m-53.647 0c.086-113.972-29.777-227.362-86.19-327.81l-4.097-7.49v-196.19l-172.102-.112-8.746-6.513c-115.77-86.188-253.283-131.774-397.595-131.774-144.546 0-281.947 45.478-397.82 131.54l-8.73 6.544-171.73-.062-.09 195.645-4.18 7.517c-56.636 100.51-86.69 213.986-86.69 328.232 0 115.87 30.65 230.803 88.683 332.327l4.398 7.568v239.513l1151.522.343.108-239.708 4.315-7.57c58.232-101.29 88.834-216.115 88.945-332m-885.84 483.914c-5.068 13.772-22.317 20.565-35.257 13.678a25.29 25.29 0 0 1-12.647-16.54c-1.608-7.098-.07-14.578 4.605-21.29l170.59-340.92 4.575-130.91-23.75-211.94-480.854-.2-1.413 3.842c-20.983 56.28-33.848 115.515-38.12 176.222l-.397 6.116 276.53.21.254-152.587h25.847l.09 152.588h199.68l4.134 25.853h-203.903l-.09 221.23 161.362.088-13.9 26.137-147.464-.204-.222 299.677.595 6.52 243.922.097.67-299.492-133.996 240.288-.842 1.54zm602.473-907.298l-329.83 149.405-141.36-.977-314.223-156.375a34.898 34.898 0 0 0-10.884-1.758c-5.94 0-14.302 1.65-19.87 9.312-4.77 6.42-6.496 14.51-4.66 22.293 1.802 7.69 6.816 14.162 13.805 17.725l212.952 108.72-358.917-.702 4.29-8.398c7.196-14.383 14.884-28.348 22.817-41.474l-.18-170.846 187.877.09-.09 53.894 25.853 13.047v-66.94l658.107.185v64.85l25.853-13.035v-51.814l183.607.127-.37 170.685c8.237 13.668 16.17 28.104 23.655 43.135l4.198 8.412-380.587-.157 223.81-104.42c7.11-2.087 11.677-5.73 14.062-10.923 2.88-6.302 2.33-14.79-1.626-23.137-6.378-14.115-25.56-19.552-38.288-10.926m-389.57-25.003c-16.08.26-30.276 6.108-40.79 17.055-12.674 13.12-19.473 32.44-19.066 54.307.448 40.802 25.358 69.13 60.655 69.13 17.566-.182 31.75-6.048 42.386-16.97 12.745-13.105 19.6-32.377 19.316-54.307-.54-40.773-25.86-69.216-61.56-69.216h-.94zm-348.903 782.33v-98.66h-231.653l3.446 8.157c8.245 19.148 17.222 37.92 26.575 55.237l16.5 38.48v204.208l179.277.115h5.97l-.115-6.006c-.138-2.89 0-199.604 0-201.53m983.55-339.8l.07-5.903h-273.773l-.126 221.196 239.316.204 1.244-4.046c21.85-67.7 33.34-139.056 33.34-206.457l-.072-4.994zm-606.868 130.828c-5.568-5.74-13.656-8.688-23.755-8.688-10.368 0-18.21 2.95-23.746 8.688-7.69 8.2-7.125 19.17-7.125 19.17l-7.83 397.436h75.85l-5.963-396.688c0-.458.473-11.484-7.43-19.918m307.275 110.312h-160.286l-12.94-25.847h173.226l.13-221.196-218.158-.116 3.52-25.863 214.638.11V785.09h25.85v152.577l272.634.09-.466-6.225c-4.032-59.973-16.867-119.34-38.123-176.222l-1.404-3.842-489.915-.062-24.115 215.258 4.025 123.643 169.812 343.704 1.622 3.13h.762c3.552 5.303 4.764 11.637 3.643 17.862-1.34 6.908-5.735 12.61-12.073 15.91-8.976 4.962-20.48 2.65-27.204-4.228l-132.902-245.775-.196 295.962 242.084.052 6.807-.263-1.043-6.696.072-299.384zM2136.15 963.33l-277.836-.224-.12 5.79v5.205c0 70.437 11.694 139.868 34.98 206.523l1.443 3.937h241.418l.115-221.23zm709.515 546.81l-1.12 6.785 187.002.145.09-212.993c15.448-25.89 29.252-54.62 41.3-85.46l3.085-7.904-230.267-.132-.09 299.56zm-369.48-1167.203l-6.022.28c-50.816 1.71-182.33 14.067-305.303 90.602l-2.703 1.684v17.586l313.956.055.072-110.208zm344.1 95.75l-2.793-1.74c-12.727-8.023-23.914-14.903-30.437-18.655-86.663-46.74-180.52-71.89-279.04-74.86l-6.048-.215v109.928l318.227.11.09-14.57z"/></svg>