<svg xmlns="http://www.w3.org/2000/svg" width="725.516" height="196.872" viewBox="0 0 725.516 196.872"><path fill="none" stroke="#777" stroke-width=".8" stroke-linejoin="round" d="M473.576 186.486l1.62 3.447 2.474 2.897 3.16 2.156 3.602 1.24 3.808.246 3.735-.758 3.402-1.728 2.84-2.55 2.058-3.21"/><path fill="none" stroke="#777" stroke-width=".8" stroke-linejoin="round" d="M465.287 177.515l1.62 3.457 2.478 2.902 3.156 2.145 3.606 1.237 3.81.242 3.73-.756 3.402-1.73 2.84-2.55 2.047-3.207"/><path fill="none" stroke="#777" stroke-width=".8" stroke-linejoin="round" d="M456.99 168.546l1.63 3.457 2.476 2.897 3.144 2.146 3.617 1.237 3.797.26 3.746-.77 3.403-1.72 2.824-2.56 2.06-3.21M565.584 22.025l-81.898 148.258M565.553 46.05l-73.578 133.207M565.533 70.068l-65.258 118.158M574.416 168.404l1.645 3.44 2.477 2.888 3.156 2.133 3.606 1.228 3.796.246 3.734-.772 3.39-1.725 2.83-2.55 2.057-3.213"/><path fill="none" stroke="#777" stroke-width=".8" stroke-linejoin="round" d="M582.61 177.28l1.63 3.438 2.49 2.89 3.155 2.132 3.594 1.24 3.807.234 3.723-.77 3.402-1.718 2.817-2.56 2.057-3.198"/><path fill="none" stroke="#777" stroke-width=".8" stroke-linejoin="round" d="M590.79 186.154l1.646 3.447 2.472 2.89 3.156 2.134 3.606 1.227 3.8.235 3.73-.767 3.392-1.717 2.828-2.558 2.05-3.2M653.35 122.894l-35.88 64.95M652.455 100.812l-43.168 78.156M652.48 77.068l-51.373 93.012M467.88 64.533l-.405-3.37-1.184-3.18-1.897-2.813-2.497-2.296-2.976-1.642M475.803 76.725l.363-3.348-.426-3.34-1.195-3.156-1.9-2.784-2.483-2.27-2.957-1.625M467.88 64.533l-.097 86.86M585.268 24.244l-.418-3.773-1.227-3.596-1.984-3.23-2.646-2.732-3.18-2.078M593.447 33.12l-.406-3.774-1.233-3.597-1.985-3.244-2.648-2.72-3.188-2.08M601.64 41.994l-.415-3.773-1.227-3.596-1.984-3.243-2.657-2.718-3.18-2.082M601.64 41.994l-.087 79.87M593.447 33.12l-.105 103.616M585.268 24.244l-.14 127.363M475.803 76.725l-.063 60.247M672.166 73.365l-.395-3.36-1.17-3.167-1.88-2.816-2.484-2.293-2.94-1.646M680.338 82.826l-.277-3.488-1.12-3.305-1.876-2.957-2.54-2.398-3.05-1.72M672.166 73.346l-.062 50.497M680.338 82.826l-.03 24.96M483.72 88.916l-.034 33.634M483.72 88.916l.36-3.797-.66-3.766-1.633-3.454-2.473-2.9-3.156-2.146M393.947 131.904l2.68 2.263 3.144 1.547 3.427.733 3.508-.104 3.37-.974 3.03-1.738 2.53-2.442 1.855-2.964"/><path fill="none" stroke="#777" stroke-width=".8" stroke-linejoin="round" d="M399.088 135.455l1.62 3.457 2.478 2.903 3.156 2.145 3.605 1.233 3.81.247 3.733-.757 3.403-1.728 2.836-2.55 2.057-3.212M448.06 96.865l-22.273 40.328M448.08 72.842l-30.59 55.384M714.643 84.162L709.78 86.4l-4.407 3.028-3.84 3.734-3.148 4.32-2.38 4.8M716.764 86.56l.172-.992-.415-.928-.866-.533-1.01.055M722.822 93.033l-4.68 2.145-4.277 2.884-3.758 3.54-3.125 4.103M724.947 95.436l.168-.993-.414-.928-.862-.52-1.016.038M724.947 95.436l-28.61 56.02M716.764 86.56l-28.618 56.012M661.63 141.365l1.716 3.328 2.527 2.786 3.16 2.014 3.582 1.142 3.746.172 3.67-.8 3.327-1.73 2.774-2.538 2.016-3.168"/><path fill="none" stroke="#777" stroke-width=".8" stroke-linejoin="round" d="M669.662 149.772l1.633 3.446 2.473 2.88 3.156 2.13 3.605 1.24 3.796.233 3.735-.763 3.39-1.72 2.83-2.56 2.058-3.202M448.03 120.886l-13.954 25.28M407.377 144.43l1.62 3.444 2.478 2.9 3.156 2.155 3.606 1.237 3.81.245 3.73-.758 3.406-1.73 2.836-2.546 2.058-3.21"/><path fill="#FC0000" d="M2.076 121.78H387.23l3.413-.468 3.168-1.38 2.67-2.175 1.983-2.824 33.598-65.24 2.094-3.253 2.887-2.583 3.48-1.707 3.798-.722 3.86.316 3.64 1.348 3.133 2.258 2.423 3.02 1.535 3.562.524 3.833-.075 99.678.414 1.474 1.115 1.065 1.492.33 1.46-.49.993-1.164 81.258-147.36 2.1-3 2.69-2.495 3.167-1.856L557.52.795 561.17.4l1.1.395.6 1.016-.196 1.153L475.24 161.51l-2.1 3.265-2.892 2.582-3.477 1.72-3.807.71-3.87-.32-3.638-1.343-3.148-2.26-2.422-3.03-1.524-3.562-.522-3.85.105-99.657-.414-1.474-1.11-1.058-1.496-.34-1.46.493-.993 1.16-33.43 64.906-2.472 3.885-3.136 3.383-3.7 2.742-4.128 2.026-4.438 1.246-4.586.426H22.46l-4.724-.362-4.63-1.056-4.405-1.737-4.096-2.38-3.7-2.965-.504-.875.075-1.01.64-.79.96-.3"/><path fill="none" stroke="#FC0000" stroke-width=".8" stroke-linejoin="round" d="M2.076 121.78H387.23l3.413-.468 3.168-1.38 2.67-2.175 1.983-2.824 33.598-65.24 2.094-3.253 2.887-2.583 3.48-1.707 3.798-.722 3.86.316 3.64 1.348 3.133 2.258 2.423 3.02 1.535 3.562.524 3.833-.075 99.678.414 1.474 1.115 1.065 1.492.33 1.46-.49.993-1.164 81.258-147.36 2.1-3 2.69-2.495 3.167-1.856L557.52.795 561.17.4l1.1.395.6 1.016-.196 1.153L475.24 161.51l-2.1 3.265-2.892 2.582-3.477 1.72-3.807.71-3.87-.32-3.638-1.343-3.148-2.26-2.422-3.03-1.524-3.562-.522-3.85.105-99.657-.414-1.474-1.11-1.058-1.496-.34-1.46.493-.993 1.16-33.43 64.906-2.472 3.885-3.136 3.383-3.7 2.742-4.128 2.026-4.438 1.246-4.586.426H22.46l-4.724-.362-4.63-1.056-4.405-1.737-4.096-2.38-3.7-2.965-.504-.875.075-1.01.64-.79.96-.3"/><path fill="#FC0000" d="M576.768 155.562l.148-139.994-.375-3.668-1.15-3.5-1.87-3.175-2.502-2.7-3.02-2.113-1.152-.18-1.004.586-.395 1.098-.16 153.634.524 3.862 1.547 3.582 2.446 3.03 3.176 2.26 3.67 1.323 3.88.29 3.83-.77 3.466-1.77 2.87-2.635 2.06-3.318 54.1-97.953 1.005-1.16 1.45-.49 1.504.343 1.11 1.054.406 1.473-.066 63.488.523 3.84 1.527 3.552 2.418 3.03 3.15 2.263 3.624 1.332 3.863.32 3.808-.716 3.465-1.718 2.89-2.572 2.102-3.264 28.61-56.01.167-.99-.414-.93-.863-.53-1.012.05-4.32 1.94-3.98 2.57-3.563 3.137-3.04 3.637-2.464 4.043-19.53 38.23-1.005 1.173-1.45.48-1.502-.33-1.11-1.056-.406-1.482.066-63.488-.523-3.832-1.527-3.563-2.422-3.015L656.2 52l-3.628-1.346-3.86-.32-3.808.723-3.465 1.708-2.89 2.58-2.103 3.255-54.027 97.812-.887 1.345-1.472.65-1.585-.232-1.22-1.068-.444-1.545"/><path fill="none" stroke="#F00" stroke-width=".16" stroke-linejoin="round" d="M576.768 155.562l.148-139.994-.375-3.668-1.15-3.5-1.87-3.175-2.502-2.7-3.02-2.113-1.152-.18-1.004.586-.395 1.098-.16 153.634.524 3.862 1.547 3.582 2.446 3.03 3.176 2.26 3.67 1.323 3.88.29 3.83-.77 3.466-1.77 2.87-2.635 2.06-3.318 54.1-97.953 1.005-1.16 1.45-.49 1.504.343 1.11 1.054.406 1.473-.066 63.488.523 3.84 1.527 3.552 2.418 3.03 3.15 2.263 3.624 1.332 3.863.32 3.808-.716 3.465-1.718 2.89-2.572 2.102-3.264 28.61-56.01.167-.99-.414-.93-.863-.53-1.012.05-4.32 1.94-3.98 2.57-3.563 3.137-3.04 3.637-2.464 4.043-19.53 38.23-1.005 1.173-1.45.48-1.502-.33-1.11-1.056-.406-1.482.066-63.488-.523-3.832-1.527-3.563-2.422-3.015L656.2 52l-3.628-1.346-3.86-.32-3.808.723-3.465 1.708-2.89 2.58-2.103 3.255-54.027 97.812-.887 1.345-1.472.65-1.585-.232-1.22-1.068-.444-1.545"/><path fill="#777" d="M46.522 97.186h33.582c2.054.18 3.972.07 5.75-.332 1.777-.402 3.375-1 4.793-1.793a13.914 13.914 0 0 0 4-3.206c1.152-1.336 2.082-2.934 2.79-4.793.444-1.597.6-3.105.467-4.53-.13-1.426-.55-2.8-1.257-4.137-.71-1.332-1.71-2.578-3-3.738-1.293-1.16-2.83-2.266-4.606-3.325-.347-.18-.675-.36-.987-.54a14.855 14.855 0 0 1-.867-.542 3.214 3.214 0 0 1-.47-.26 2.845 2.845 0 0 0-.468-.26 7.34 7.34 0 0 1-.47-.273 7.41 7.41 0 0 0-.467-.27h-.27c-.08 0-.124-.02-.124-.062v-.207a109.293 109.293 0 0 1-9.27-5.593 105.184 105.184 0 0 1-8.21-6.137c-2.485-2.125-4.106-4.61-4.864-7.457-.757-2.85-.64-6.052.344-9.607v-.2c0-.046.043-.112.125-.194v-.4l.146-.144v-.332c0-.043.043-.106.125-.188.89-3.39 2.157-6.37 3.805-8.95 1.645-2.577 3.668-4.702 6.07-6.386 2.31-1.777 4.704-3.246 7.188-4.406 2.488-1.16 4.98-2.004 7.48-2.53.17 0 .34-.024.52-.07.184-.052.406-.12.668-.2.18 0 .36-.02.544-.063.18-.042.352-.062.52-.062.36-.097.652-.144.875-.144.22 0 .463-.043.73-.125.18 0 .335-.028.468-.075a1.05 1.05 0 0 1 .344-.075l32.52-.25-3.063 11.586H91.583c-1.875.18-3.613.536-5.21 1.07-1.6.536-3.102 1.34-4.52 2.407-1.332 1.07-2.446 2.184-3.332 3.336-.89 1.15-1.56 2.35-2 3.6 0 .086-.028.15-.075.188l-.074.062c0 .098-.02.168-.062.21-.038.04-.062.11-.062.208v.25c-.098.098-.144.168-.144.207v.21a7.063 7.063 0 0 0-.395 2.26c0 .714.046 1.43.144 2.136.168.626.43 1.204.793 1.73.36.53.847.974 1.457 1.333a65.353 65.353 0 0 0 4.812 3.864 57.977 57.977 0 0 0 4.668 3.074c1.512.892 2.957 1.755 4.332 2.595 1.375.84 2.77 1.664 4.188 2.468.36.266.7.508 1.01.73.314.224.642.423.99.602.18.086.36.196.543.336.18.138.36.25.54.333.167.18.338.317.522.407.18.09.358.175.538.26.184.083.36.193.53.333.177.14.353.293.533.457.087.098.172.168.262.21.09.04.184.11.282.208.168.168.386.36.656.582.27.223.578.426.926.606a20.707 20.707 0 0 1 3.605 3.738c1.07 1.426 2.048 3.028 2.94 4.805.89 1.776 1.397 3.776 1.53 6 .133 2.222-.156 4.616-.863 7.186a30.772 30.772 0 0 1-.668 2.008c-.263.715-.53 1.43-.794 2.137a63.3 63.3 0 0 0-.813 2.2 16.836 16.836 0 0 1-.937 2.195 30.377 30.377 0 0 1-3.914 5.606c-1.56 1.777-3.403 3.466-5.543 5.063-2.044 1.6-4.533 2.774-7.47 3.532-2.938.758-6.317 1.136-10.137 1.136H43.436M111.73 108.79l12.088-45.315c.96-3.52 2.387-6.703 4.274-9.547 1.89-2.844 4.242-5.328 7.05-7.45 2.82-2.108 5.64-3.69 8.454-4.745 2.816-1.055 5.633-1.582 8.453-1.582.57 0 1.14.032 1.718.098.574.063 1.152.16 1.73.293.582.12 1.156.28 1.734.474.575.195 1.18.387 1.82.574a17.48 17.48 0 0 1 4.76 2.883c1.436 1.22 2.698 2.69 3.776 4.41 1.09 1.732 1.746 3.7 1.973 5.91.227 2.208-.01 4.662-.71 7.35-.84 2.94-1.93 5.562-3.27 7.866a22.25 22.25 0 0 1-4.996 5.95c-1.922 1.6-3.84 2.96-5.762 4.078-1.918 1.12-3.804 1.937-5.652 2.445-.52.128-1.02.24-1.5.34-.48.093-.94.175-1.383.245-.52.058-1 .11-1.445.14-.445.036-.895.055-1.344.055l-12.87-.195 2.222-8.266h8.34c.07.07.136.12.203.152a.47.47 0 0 0 .187.043h.96c1.92 0 3.63-.176 5.138-.524 1.504-.35 2.8-.91 3.89-1.68a19.23 19.23 0 0 0 2.918-2.303 15.168 15.168 0 0 0 2.168-2.586c.32-.52.606-1.05.864-1.59.254-.538.476-1.07.668-1.59.066-.19.117-.347.148-.472.03-.125.074-.29.133-.488.133-.25.246-.52.34-.808.093-.293.175-.563.246-.813.133-.32.21-.673.242-1.056.027-.386.074-.804.133-1.254.07-.45.105-.898.105-1.343v-1.34c-.13-.96-.386-1.89-.773-2.785-.383-.895-.926-1.762-1.625-2.602-.71-.832-1.672-1.453-2.887-1.867-1.22-.414-2.75-.62-4.598-.62-2.82 0-5.238.444-7.253 1.34-2.016.893-3.633 2.237-4.852 4.026-1.21 1.8-2.28 3.77-3.21 5.91a55.752 55.752 0 0 0-2.446 6.87l-11.04 41.37M177.295 74.034c0 .132-.02.242-.055.34a.712.712 0 0 0-.05.246.417.417 0 0 1-.047.187.485.485 0 0 0-.043.188v.195c0 .058-.032.09-.09.09 0 .07-.02.136-.055.203a.4.4 0 0 0-.05.187c-.962 3.46-1.262 6.676-.91 9.653.355 2.976 1.362 5.773 3.023 8.394 1.6 2.56 3.73 4.477 6.382 5.758 2.657 1.28 5.84 1.922 9.547 1.922.71 0 1.48-.035 2.313-.1.828-.064 1.66-.158 2.488-.275a42.08 42.08 0 0 0 2.887-.535 22.518 22.518 0 0 0 3.07-.907c2.047-.71 4.082-1.67 6.098-2.886 2.012-1.215 4.015-2.72 6.008-4.508 2.04-1.86 3.813-4.152 5.317-6.87 1.504-2.72 2.738-5.907 3.695-9.556.903-3.39 1.27-6.652 1.114-9.79a24.494 24.494 0 0 0-2.16-8.93c-1.223-2.81-3.286-4.936-6.196-6.374-2.91-1.44-6.64-2.16-11.19-2.16-3.77 0-7.322.672-10.65 2.016-3.332 1.348-6.402 3.36-9.21 6.04-2.88 2.686-5.25 5.507-7.11 8.452s-3.234 6.016-4.125 9.215m-9.797-.196c1.41-4.99 3.477-9.5 6.195-13.528 2.72-4.03 6.16-7.52 10.32-10.472 4.09-3.008 8.17-5.33 12.235-6.957 4.063-1.633 8.145-2.58 12.246-2.836h.285c.058 0 .156-.03.285-.09h1.542c.833 0 1.68.032 2.543.098.868.063 1.715.16 2.543.293.89.12 1.77.28 2.633.474a56.67 56.67 0 0 1 2.65.664 24.972 24.972 0 0 1 7.58 4.035c2.305 1.793 4.352 4 6.145 6.633 1.86 2.617 2.95 5.817 3.27 9.59.317 3.777-.066 8.13-1.155 13.06a45.565 45.565 0 0 1-5.715 12.87c-2.59 4.03-5.87 7.804-9.84 11.324-3.973 3.52-8.258 6.13-12.863 7.824-4.606 1.69-9.567 2.543-14.887 2.543-4.922 0-9.27-.738-13.05-2.207-3.782-1.47-7.013-3.68-9.692-6.63-2.63-3-4.215-6.71-4.762-11.133-.543-4.418-.047-9.54 1.492-15.36v-.193zM248.588 61.58c1.516-5.597 3.805-10.773 6.875-15.53 3.07-4.755 6.91-9.044 11.52-12.864a91.38 91.38 0 0 1 6.95-5.332 102.532 102.532 0 0 1 6.928-4.4 96.473 96.473 0 0 1 6.927-3.405 48.712 48.712 0 0 1 6.945-2.47 47.8 47.8 0 0 1 3.188-.925c1.07-.27 2.14-.45 3.21-.532a40.66 40.66 0 0 1 3.134-.406c1.023-.09 2.02-.137 2.992-.137l13.605-.25-3.065 11.586h-10.54c-6.222.723-11.91 2.102-17.062 4.145-5.152 2.044-9.73 4.884-13.73 8.52-4.098 3.56-7.41 7.293-9.938 11.21-2.527 3.915-4.375 7.958-5.543 12.126-.26.887-.48 1.91-.656 3.07-.172 1.16-.347 2.407-.53 3.743 0 .624-.024 1.288-.07 2a9.054 9.054 0 0 0 .07 2c0 .706.046 1.393.136 2.06.09.665.218 1.353.386 2.064a22.37 22.37 0 0 0 2.54 7.062c1.25 2.22 2.898 4.36 4.937 6.414 2.043 2.043 4.777 3.575 8.2 4.594 3.42 1.024 7.58 1.53 12.468 1.53l10.52-.268-3.063 11.605h-16.79c-6.847-.085-12.605-1.303-17.273-3.667-4.664-2.358-8.29-5.765-10.875-10.207-2.566-4.445-4.03-9.42-4.382-14.93-.356-5.503.308-11.55 1.988-18.132M318.842 74.034c0 .132-.02.242-.055.34a.716.716 0 0 0-.05.246.416.416 0 0 1-.047.187.485.485 0 0 0-.043.188v.195c0 .058-.032.09-.09.09 0 .07-.02.136-.055.203a.4.4 0 0 0-.05.187c-.962 3.46-1.262 6.676-.907 9.653.355 2.976 1.36 5.773 3.02 8.394 1.6 2.56 3.73 4.477 6.382 5.758 2.657 1.28 5.84 1.922 9.547 1.922.71 0 1.48-.035 2.313-.1.828-.064 1.66-.158 2.488-.275a42.08 42.08 0 0 0 2.887-.535 22.56 22.56 0 0 0 3.07-.907c2.05-.71 4.082-1.67 6.098-2.886 2.015-1.215 4.015-2.72 6.007-4.508 2.04-1.86 3.813-4.152 5.317-6.87 1.504-2.72 2.738-5.907 3.695-9.556.9-3.39 1.272-6.652 1.112-9.79a24.493 24.493 0 0 0-2.16-8.93c-1.223-2.81-3.285-4.936-6.195-6.374-2.91-1.44-6.64-2.16-11.19-2.16-3.77 0-7.322.672-10.65 2.016-3.332 1.348-6.402 3.36-9.21 6.04-2.88 2.686-5.25 5.507-7.11 8.452-1.86 2.945-3.235 6.016-4.125 9.215m-9.797-.196c1.41-4.99 3.477-9.5 6.195-13.528 2.723-4.03 6.16-7.52 10.32-10.472 4.09-3.008 8.17-5.33 12.235-6.957 4.062-1.633 8.145-2.58 12.246-2.836h.286c.06 0 .156-.03.285-.09h1.544c.832 0 1.68.032 2.543.098.868.063 1.715.16 2.543.293.89.12 1.77.28 2.633.474.867.195 1.75.414 2.65.664a24.972 24.972 0 0 1 7.58 4.035c2.306 1.793 4.353 4 6.142 6.633 1.863 2.617 2.953 5.817 3.27 9.59.32 3.777-.062 8.13-1.152 13.06-1.22 4.55-3.125 8.838-5.715 12.87-2.59 4.03-5.87 7.804-9.84 11.324-3.972 3.52-8.257 6.13-12.863 7.824-4.605 1.69-9.566 2.543-14.886 2.543-4.923 0-9.27-.738-13.052-2.207-3.78-1.47-7.012-3.68-9.69-6.63-2.63-3-4.216-6.71-4.763-11.133-.543-4.418-.047-9.54 1.492-15.36v-.193zM98.557 145.112h4.265v29.01h-3.894L80.635 151.67v22.453H76.37v-29.01h3.718l18.47 22.66M123.81 148.522c-3.257 0-5.937 1.05-8.03 3.144-2.098 2.1-3.145 4.77-3.145 8.024 0 3.156 1.05 5.78 3.152 7.875 2.106 2.098 4.738 3.144 7.903 3.144 3.17 0 5.82-1.066 7.945-3.208 2.125-2.136 3.187-4.797 3.187-7.98 0-3.102-1.062-5.71-3.187-7.823-2.125-2.12-4.735-3.178-7.824-3.178m-.156-3.84c4.418 0 8.098 1.427 11.032 4.273 2.937 2.853 4.402 6.422 4.402 10.715s-1.48 7.85-4.445 10.66c-2.965 2.813-6.7 4.22-11.207 4.22-4.31 0-7.895-1.406-10.762-4.22-2.87-2.812-4.305-6.34-4.305-10.578 0-4.347 1.445-7.944 4.33-10.797 2.892-2.847 6.544-4.272 10.954-4.272zM150.17 148.952h-1.27v8.53h1.61c2.137 0 3.605-.167 4.398-.503.797-.333 1.418-.84 1.86-1.522.445-.675.668-1.444.668-2.308 0-.856-.246-1.625-.74-2.313-.495-.69-1.186-1.175-2.08-1.46-.895-.285-2.376-.425-4.446-.425m-5.535 25.17v-29.01h7.367c2.973 0 5.332.715 7.082 2.147 1.746 1.434 2.617 3.37 2.617 5.816 0 1.664-.417 3.1-1.257 4.316-.84 1.215-2.046 2.125-3.613 2.723.918.625 1.82 1.472 2.7 2.543.878 1.074 2.124 2.938 3.738 5.593 1.015 1.67 1.828 2.927 2.44 3.768l1.54 2.104h-5l-1.266-1.933c-.04-.07-.12-.193-.246-.36l-.812-1.153-1.29-2.147-1.39-2.293c-.86-1.203-1.648-2.164-2.367-2.883-.723-.72-1.37-1.234-1.953-1.556-.582-.315-1.56-.476-2.93-.476H148.9v12.8h-4.265zM163.408 145.112h24.32v3.84H177.49v25.17h-4.27v-25.17h-9.812M211.623 145.112h4.266v29.01h-4.267v-12.8h-15.785v12.8h-4.27v-29.01h4.27v12.37h15.785M278.557 145.112h4.105l-11.738 29.01h-.79l-9.87-23.49-9.926 23.49h-.73l-11.747-29.01h4.103l8.06 19.91 8.42-19.91h3.692l8.367 19.91M285.65 145.112h16.637v3.84h-12.37v8.53h11.944v3.84h-11.944v8.962h12.8v3.84H285.65M313.857 161.803l-3.14-1.87c-1.965-1.18-3.363-2.353-4.195-3.52-.83-1.172-1.247-2.516-1.247-4.036 0-2.28.8-4.132 2.403-5.558 1.597-1.423 3.676-2.138 6.23-2.138 2.446 0 4.688.75 6.727 2.24v4.693c-2.035-2.063-4.223-3.094-6.567-3.094-1.32 0-2.402.316-3.253.945-.848.63-1.274 1.435-1.274 2.41 0 .87.32 1.685.958 2.442.633.758 1.652 1.554 3.06 2.39l3.124 1.888c3.488 2.12 5.234 4.816 5.234 8.086 0 2.337-.797 4.23-2.394 5.685-1.594 1.457-3.672 2.183-6.227 2.183-2.934 0-5.605-1.03-8.02-3.094v-5.117c2.25 2.914 4.856 4.37 7.813 4.37 1.305 0 2.39-.366 3.258-1.107.867-.738 1.304-1.664 1.304-2.777 0-1.8-1.265-3.472-3.793-5.02M324.05 145.112h24.32v3.84h-10.24v25.17h-4.27v-25.17h-9.81M144.81 186.913v8.813h-2.925v-8.813h-2.422v-2.39h7.766v2.39M160.057 192.526c.488.012.902.183 1.242.522.335.34.507.754.507 1.24 0 .48-.172.89-.508 1.226a1.69 1.69 0 0 1-1.243.508c-.49 0-.903-.168-1.24-.508a1.687 1.687 0 0 1-.506-1.23c0-.493.17-.907.508-1.246.336-.34.75-.512 1.24-.512M178.11 186.913v8.813h-2.924v-8.813h-2.422v-2.39h7.765v2.39M219.326 185.135l-1.164 2.375c-.27-.265-.57-.483-.902-.647s-.68-.246-1.04-.246c-.05 0-.105 0-.163.007a.84.84 0 0 0-.18.043 1.44 1.44 0 0 0-.625.353c-.19.176-.285.41-.285.703 0 .237.09.43.265.573a2.344 2.344 0 0 0 .81.43c.073.027.144.048.214.07l.738.203c.78.234 1.434.574 1.96 1.016.528.444.794 1.116.794 2.012v.233a5.182 5.182 0 0 1-.285 1.486 2.83 2.83 0 0 1-.88 1.253 3.83 3.83 0 0 1-1.288.718 6.22 6.22 0 0 1-1.46.293c-.08 0-.157 0-.23.006-.076.008-.15.008-.22.008-.707 0-1.4-.113-2.074-.336a7.36 7.36 0 0 1-1.882-.935l1.258-2.375c.363.332.765.61 1.2.84.432.228.897.34 1.514.34.33-.016.63-.116.895-.297.27-.18.406-.447.406-.804a.78.78 0 0 0-.327-.656 2.69 2.69 0 0 0-.734-.39c-.118-.04-.236-.08-.353-.11a13.1 13.1 0 0 1-.453-.14c-.887-.243-1.594-.55-2.12-.93-.528-.375-.794-1.082-.794-2.12 0-1.177.367-2.118 1.098-2.825.734-.707 1.66-1.06 2.785-1.06.23 0 .465.013.703.035.238.028.476.07.715.13.38.082.75.184 1.114.315.363.125.695.278.992.446M232.662 186.913h-3.48v1.852h3.3v2.48h-3.3v2h3.48v2.48h-6.406v-11.203h6.406M242.475 186.765v2.733h.3c.05.008.106.017.157.017h.14a3.29 3.29 0 0 0 1.274-.31c.386-.183.578-.55.578-1.097 0-.524-.192-.875-.578-1.05a3.37 3.37 0 0 0-1.274-.294m2.37 4.337l3.603 4.626h-3.707l-2.832-4.332h-.03v4.332h-2.927v-11.203h4.444c1.133.012 2.078.285 2.84.828.758.54 1.137 1.398 1.137 2.578 0 .777-.218 1.47-.652 2.07-.433.606-1.058.978-1.875 1.118v-.015zM254.78 184.522h2.925v11.203h-2.926zM271.04 186.913h-3.48v1.852h3.3v2.48h-3.3v2h3.48v2.48h-6.405v-11.203h6.406M285.334 185.135l-1.164 2.375a3.45 3.45 0 0 0-.906-.647 2.32 2.32 0 0 0-1.035-.246c-.052 0-.107 0-.17.007a.793.793 0 0 0-.175.043c-.23.06-.438.176-.63.353-.187.176-.28.41-.28.703 0 .237.09.43.265.573.176.146.367.263.575.35.082.03.156.058.23.08.074.027.145.048.22.07L283 189c.777.234 1.434.574 1.96 1.016.524.444.79 1.116.79 2.012v.233a5.077 5.077 0 0 1-.28 1.486 2.872 2.872 0 0 1-.884 1.253c-.38.32-.81.562-1.285.718a6.21 6.21 0 0 1-1.465.293c-.078 0-.156 0-.23.006-.075.008-.145.008-.215.008-.707 0-1.4-.113-2.078-.336a7.27 7.27 0 0 1-1.88-.935l1.255-2.375c.367.332.765.61 1.2.84.432.228.897.34 1.514.34a1.74 1.74 0 0 0 .9-.297c.268-.18.4-.447.4-.804 0-.272-.108-.492-.327-.656s-.465-.297-.734-.39c-.118-.04-.235-.08-.348-.11-.117-.034-.227-.065-.457-.14-.887-.243-1.59-.55-2.12-.93-.528-.375-.79-1.082-.79-2.12 0-1.177.363-2.118 1.097-2.825.73-.707 1.66-1.06 2.786-1.06.227 0 .462.013.7.035.238.028.476.07.72.13.377.082.745.184 1.108.315.363.125.695.278.996.446"/></svg>