<!DOCTYPE svg PUBLIC "-//W3C//DTD SVG 1.1//EN" "http://www.w3.org/Graphics/SVG/1.1/DTD/svg11.dtd" [
	<!ENTITY ns_flows "http://ns.adobe.com/Flows/1.0/">
]><svg xmlns="http://www.w3.org/2000/svg" viewBox="-0.182 -0.053 64 11"><path d="M54.848 8.49a13.436 13.436 0 0 0-1.424-1.354c-.63-.513-1.33-.98-2.098-1.4-.488-.28-.933-.513-1.377-.722-.234-.094-.443-.187-.68-.28.236.187.47.374.678.536.956.77 1.7 1.447 2.24 2.053.652.723 1.164 1.353 1.49 1.842.327.49.582.863.746 1.096a.72.72 0 0 0 .42.328c.07.023.164.023.232.023.258 0 .397-.07.467-.21.07-.14.116-.255.116-.35 0-.37-.21-.814-.65-1.352-.048-.07-.117-.14-.163-.208zM59.3 6.225a75.73 75.73 0 0 0-2.073-.35c-.7-.116-1.494-.257-2.38-.42-.28-.07-.584-.116-.888-.187-1.19-.233-2.52-.653-4.01-1.26a1.708 1.708 0 0 1-.306-.116c.095.07.21.14.304.21.56.35 1.214.7 1.958 1.05.886.443 1.797.814 2.682 1.14.094.025.163.07.258.095.792.278 1.562.536 2.26.724.772.21 1.4.327 1.89.327.234 0 .467-.047.7-.117.232-.07.35-.258.35-.536 0-.28-.258-.467-.748-.56zm4.033-5.27c-.068-.163-.21-.256-.44-.256-.35 0-.514.162-.514.49 0 .092.045.21.14.372.092.14.21.187.372.14 0 .28-.188.513-.536.746-.353.21-.794.373-1.283.512-.49.14-1.025.256-1.587.326a13.48 13.48 0 0 1-1.63.093 24.79 24.79 0 0 1-3.01-.163c-.7-.07-1.398-.187-2.053-.327-.91-.185-1.843-.395-2.845-.605-.746-.163-1.517-.327-2.333-.513-.022-.024-.046-.024-.07-.024-.512-.117-1.048-.233-1.586-.35a182.89 182.89 0 0 0-1.49-.28 89.698 89.698 0 0 0-3.265-.513c-2.405-.374-5.34-.56-8.77-.607-.164.047-.255.117-.302.233-.048.12.048.19.303.19 1.12-.092 2.52.024 4.173.35 1.655.328 3.242.84 4.804 1.493a15.94 15.94 0 0 1 3.057 1.703c.326.256.65.513.956.77.187.186.373.35.535.535.748.864 1.12 1.796 1.12 2.8 0 .56-.28.956-.84 1.213-.09.023-.185.07-.28.094-.464.162-.93.256-1.35.256h-.14c-.677-.023-1.424-.162-2.24-.42-.86-.303-1.7-.676-2.47-1.143-.77-.468-1.423-.98-1.958-1.517-.516-.56-.77-1.097-.77-1.68 0-.465.14-.768.417-.908.28-.14.63-.21 1.002-.21.606 0 1.237.117 1.914.35a8.4 8.4 0 0 1 1.77.887c.516.35.957.723 1.306 1.096.352.373.54.676.54.91 0 .35-.19.512-.585.512-.653 0-1.284-.186-1.912-.535-.606-.35-1.166-.84-1.703-1.445-.093-.094-.16-.117-.21-.047-.046.068-.022.14.07.186.397.56.91 1.072 1.563 1.56.676.467 1.398.7 2.19.7.187 0 .422-.07.652-.21.234-.142.352-.33.352-.585 0-.42-.21-.84-.607-1.306A6.702 6.702 0 0 0 42.3 4.592a9.718 9.718 0 0 0-1.91-.955c-.677-.257-1.33-.396-1.938-.396-.487 0-.907.14-1.303.396-.424.256-.61.7-.61 1.306 0 .63.255 1.236.817 1.842.535.63 1.212 1.165 2.052 1.68.814.49 1.7.886 2.61 1.188a8.13 8.13 0 0 0 2.45.467h.14c.44 0 .885-.07 1.35-.232.212-.068.444-.162.68-.256.44-.233.77-.536.907-.91a1.54 1.54 0 0 0 .117-.58c0-.327-.048-.632-.117-.935-.14-.582-.42-1.143-.84-1.678-.232-.306-.49-.56-.747-.84a11.13 11.13 0 0 0-1.49-1.19l-.21-.14c-1.004-.63-2.05-1.19-3.194-1.633A32.957 32.957 0 0 0 37.872.63c2.19.14 4.128.395 5.853.745a8.6 8.6 0 0 1 .747.164c.488.09 1.003.207 1.49.3.538.118 1.074.234 1.587.35.37.07.743.164 1.093.257.443.093.888.188 1.307.28 1.12.233 2.218.466 3.29.652a17.55 17.55 0 0 0 1.61.256 30.47 30.47 0 0 0 3.356.186c.467 0 1.003-.046 1.585-.117.608-.07 1.168-.186 1.703-.396a5.27 5.27 0 0 0 1.4-.7c.373-.28.56-.63.56-1.05 0-.254-.047-.44-.12-.605zM49.95 6.668a9.067 9.067 0 0 0-1.445-1.28 4 4 0 0 1 .886 1.33c.21.535.398 1 .56 1.467.164.442.327.817.468 1.12.14.303.326.465.56.465.28 0 .443-.162.443-.488 0-.63-.326-1.307-.956-2.052-.188-.21-.35-.397-.514-.562zm-2.355-3.496h-.047a.934.934 0 0 0-.49.21c-.163.162-.256.326-.256.513 0 .233.093.42.257.56.14.14.3.21.487.21h.047c.466 0 .698-.257.698-.77 0-.467-.232-.723-.698-.723zm-2.148-.07c0 .396.165.583.514.583.33 0 .49-.187.49-.583 0-.327-.16-.49-.49-.49-.347 0-.512.163-.512.49zM31.015 0c-3.452.047-6.39.233-8.792.607a80.337 80.337 0 0 0-3.24.513c-.513.094-1.026.187-1.492.28-.56.117-1.096.233-1.607.35-.023 0-.047 0-.07.024-.793.186-1.586.35-2.33.513-.98.21-1.938.42-2.823.606a19.82 19.82 0 0 1-2.052.327c-.98.115-1.984.16-3.033.16-.513 0-1.074-.022-1.656-.092a11.26 11.26 0 0 1-1.636-.326c-.488-.14-.91-.303-1.233-.513C.723 2.214.56 1.98.56 1.7c.14.046.257 0 .352-.14.09-.164.14-.28.14-.373C1.052.862.887.7.56.7.327.7.162.794.093.956c-.07.164-.094.35-.094.606 0 .42.186.77.56 1.05.373.28.84.513 1.376.7.536.21 1.118.327 1.702.396.58.07 1.12.117 1.583.117 1.19 0 2.31-.07 3.385-.186.535-.07 1.072-.14 1.584-.26a95.46 95.46 0 0 0 3.29-.65c.443-.094.884-.188 1.305-.28.373-.094.745-.188 1.096-.257l1.61-.35c.49-.093.98-.21 1.49-.303.234-.07.49-.115.725-.163C21.43 1.027 23.39.77 25.558.63c-1.002.28-2.05.654-3.194 1.097a18.51 18.51 0 0 0-3.17 1.632c-.068.045-.142.09-.21.14-.56.372-1.073.77-1.492 1.187a8.29 8.29 0 0 0-.748.84c-.417.536-.722 1.097-.86 1.703-.07.28-.094.607-.094.91 0 .21.023.396.093.582.162.373.466.676.933.91.232.094.44.188.677.256.44.164.885.234 1.33.234h.162a8.368 8.368 0 0 0 2.4-.467c.936-.303 1.82-.7 2.66-1.19.815-.513 1.492-1.048 2.054-1.678.533-.606.81-1.213.81-1.842 0-.606-.21-1.05-.603-1.306A2.386 2.386 0 0 0 25 3.24c-.63 0-1.26.14-1.96.396a10.39 10.39 0 0 0-1.91.954 7.863 7.863 0 0 0-1.49 1.238c-.398.466-.585.888-.585 1.307 0 .257.117.442.35.583.235.14.444.21.63.21.794 0 1.54-.233 2.192-.7.677-.488 1.19-1.003 1.562-1.562.093-.047.115-.117.07-.186-.047-.07-.117-.047-.21.047a6.594 6.594 0 0 1-1.7 1.443 3.83 3.83 0 0 1-1.915.535c-.372 0-.56-.163-.56-.514 0-.233.164-.536.536-.91A7.05 7.05 0 0 1 21.32 4.99a7.422 7.422 0 0 1 1.77-.886A5.637 5.637 0 0 1 25 3.754c.373 0 .7.07.98.21.278.14.418.443.418.91 0 .582-.255 1.12-.768 1.68-.513.534-1.166 1.047-1.96 1.514-.77.467-1.586.84-2.472 1.143-.817.26-1.562.398-2.215.42h-.163c-.42 0-.863-.092-1.33-.254-.093-.023-.186-.07-.28-.094-.58-.256-.862-.653-.862-1.212 0-1.004.372-1.936 1.144-2.8.164-.186.326-.35.535-.534.28-.257.607-.514.957-.77.886-.653 1.89-1.212 3.03-1.703 1.562-.65 3.172-1.165 4.828-1.49s3.03-.444 4.174-.35c.232 0 .327-.07.28-.188-.05-.115-.14-.185-.28-.232zM44.12 2.473c0 .28.115.42.35.42.233 0 .352-.14.352-.42 0-.234-.118-.35-.35-.35-.237 0-.353.116-.353.35zm-24.787 0c0-.234-.118-.35-.35-.35-.26 0-.373.116-.373.35 0 .28.114.42.372.42.233 0 .35-.14.35-.42zm-1.354.63c0-.328-.165-.49-.49-.49-.328 0-.515.162-.515.49 0 .395.187.582.514.582.325 0 .49-.186.49-.583zm-2.1 1.56c.187 0 .35-.07.512-.21s.235-.325.235-.558c0-.187-.072-.35-.235-.514a1.078 1.078 0 0 0-.512-.207h-.022c-.468 0-.7.256-.7.723 0 .513.232.77.7.77h.023zm-1.726.072c-.21.093-.444.186-.676.28-.422.208-.887.44-1.376.722-.748.42-1.447.887-2.1 1.4-.535.465-1.025.908-1.398 1.352a1.26 1.26 0 0 0-.186.207c-.42.537-.63.98-.63 1.354 0 .094.023.21.09.35.073.14.235.21.47.21.093 0 .162 0 .257-.023.163-.046.3-.162.42-.326.16-.23.42-.604.745-1.095.327-.49.816-1.12 1.47-1.842.56-.605 1.28-1.282 2.238-2.053.21-.162.444-.35.675-.535zM8.84 6.295a21.77 21.77 0 0 0 2.657-1.142c.745-.35 1.398-.7 1.982-1.073.115-.07.21-.116.324-.186-.116.047-.21.093-.326.117-1.47.608-2.8 1.028-3.988 1.26-.327.07-.607.118-.886.188-.91.163-1.705.303-2.38.42-.908.14-1.606.256-2.098.35-.49.093-.747.28-.747.56 0 .278.117.467.375.536.232.07.464.117.7.117.465 0 1.093-.116 1.863-.325.723-.188 1.47-.445 2.286-.725.07-.024.164-.07.233-.095zm4.15.935c-.63.745-.957 1.422-.957 2.052 0 .326.14.488.42.488.233 0 .42-.162.56-.465s.304-.678.467-1.12v-.022c.163-.443.35-.91.56-1.445.234-.514.512-.957.887-1.33-.49.35-.957.77-1.446 1.28a5.83 5.83 0 0 0-.49.562z"/></svg>